# xmcd
#
# Track frame offsets:
#	150
#	19381
#	37339
#	54106
#	72581
#	91033
#	106107
#	107011
#	129242
#	151231
#	171255
#	189231
#
# Disc length: 3017 seconds
#
# Revision: 2
# Processed by: cddbd v1.5.2PL0 Copyright (c) Steve Scherf et al.
# Submitted via: audiograbber 1.83.01
#
DISCID=940bc70c
DTITLE=Dark Age - Minus Exitus
DYEAR=2006
DGENRE=Metal
TTITLE0=Minus Exitus
TTITLE1=Black September
TTITLE2=Outside The Inside
TTITLE3=The Dying Art Of Recreation
TTITLE4=Exit Wounds
TTITLE5=Seven
TTITLE6=The Ghost Of Libra
TTITLE7=No Way Home
TTITLE8=Cold
TTITLE9=Instrumental
TTITLE10=Life For Blood
TTITLE11=The Echoes Discipline
EXTD=
EXTT0=
EXTT1=
EXTT2=
EXTT3=
EXTT4=
EXTT5=
EXTT6=
EXTT7=
EXTT8=
EXTT9=
EXTT10=
EXTT11=
PLAYORDER=
